<svg width="86" height="105" viewBox="0 0 86 105" fill="none" xmlns="http://www.w3.org/2000/svg">
<path d="M4.10459 105C2.22046 105 1.03131 104.42 0.605731 104.174C0.336331 103.683 0.0446211 102.098 0 101.049C0.111553 100.893 0.446213 100.848 0.538244 100.982C0.872902 102.121 1.79433 104.308 4.3963 104.308C6.28043 104.308 7.20018 103.08 7.20018 101.741C7.20018 100.759 6.99827 99.6652 5.35956 98.6163L3.2289 97.232C2.10723 96.4955 0.80597 95.2234 0.80597 93.393C0.80597 91.2728 2.46588 89.554 5.37964 89.554C6.08425 89.5661 6.78475 89.6636 7.46568 89.8442C7.72035 89.9232 7.98443 89.9682 8.25101 89.978C8.45292 90.5136 8.65483 91.764 8.65483 92.7015C8.56503 92.8352 8.20862 92.9024 8.09372 92.7681C7.80256 91.6969 7.19683 90.2461 5.0433 90.2461C2.84515 90.2461 2.37384 91.6969 2.37384 92.7237C2.37384 94.018 3.45089 94.9554 4.28084 95.4688L6.08019 96.5849C7.49301 97.4557 8.88407 98.7495 8.88407 100.871C8.8824 103.325 7.02058 105 4.10459 105Z" fill="black"/>
<path d="M17.5479 91.451C19.1855 90.1789 21.2715 89.554 23.6046 89.554C24.8155 89.554 26.5206 89.7998 27.5748 90.0896C27.8436 90.1567 28.0009 90.2005 28.2028 90.1789C28.2252 90.6923 28.3373 92.0987 28.5169 93.4602C28.4053 93.6161 28.0707 93.6389 27.9111 93.5046C27.5765 91.9872 26.5652 90.2461 23.3129 90.2461C19.881 90.2461 16.965 92.4106 16.965 97.0311C16.965 101.719 19.9485 104.308 23.6269 104.308C26.5206 104.308 27.799 102.433 28.315 101.116C28.4717 101.005 28.808 101.049 28.8978 101.205C28.7411 102.366 28.1582 103.839 27.8213 104.263C27.5536 104.313 27.2909 104.388 27.0366 104.485C26.5429 104.663 24.9277 104.998 23.4925 104.998C21.4734 104.998 19.5447 104.597 17.9071 103.503C16.1122 102.275 14.7217 100.244 14.7217 97.3647C14.7217 94.8888 15.8411 92.7681 17.5479 91.451Z" fill="black"/>
<path d="M43.253 99.4644C43.0962 98.9732 43.0064 98.9066 42.3332 98.9066H38.9465C38.3853 98.9066 38.2509 98.9732 38.0936 99.4422L37.3089 101.785C36.9742 102.79 36.8152 103.395 36.8152 103.638C36.8152 103.906 36.9268 104.04 37.4656 104.085L38.2057 104.152C38.363 104.263 38.363 104.62 38.1611 104.71C37.5777 104.665 36.8827 104.665 35.828 104.643C35.0878 104.643 34.2808 104.687 33.675 104.71C33.5406 104.62 33.4954 104.266 33.6299 104.152L34.3706 104.085C34.9088 104.04 35.4024 103.795 35.7159 102.991C36.1197 101.964 36.7477 100.513 37.6898 98.0136L39.9766 91.9872C40.2907 91.1836 40.4229 90.7373 40.5629 90.3283C40.6744 90.0241 41.3008 89.9831 41.6349 89.8843C41.766 89.8538 41.9065 89.8199 41.9511 89.9764C42.2428 90.9582 42.5089 91.7625 42.848 92.7443L45.9207 101.717C46.5717 103.636 46.8634 103.972 47.8277 104.083L48.4335 104.15C48.5902 104.261 48.545 104.619 48.4335 104.708C47.5137 104.663 46.7289 104.641 45.7194 104.641C44.6424 104.641 43.7901 104.685 43.1397 104.708C42.9601 104.619 42.9378 104.264 43.0951 104.15L43.7455 104.083C44.2162 104.038 44.5302 103.905 44.5302 103.681C44.5302 103.436 44.4187 103.034 44.2391 102.498L43.253 99.4644ZM38.8115 97.478C38.6324 97.9914 38.6547 98.0136 39.2828 98.0136H42.0415C42.6924 98.0136 42.737 97.9242 42.5351 97.3215L41.3237 93.6834C41.1446 93.1478 40.9427 92.545 40.8077 92.2775H40.7631C40.6956 92.3885 40.4714 92.9246 40.2249 93.594L38.8115 97.478Z" fill="black"/>
<path d="M56.0082 93.2592C56.0082 90.9153 55.9636 90.5585 54.5502 90.4469L53.9925 90.4019C53.8575 90.3131 53.9027 89.9113 54.0371 89.8469C55.2937 89.8913 56.0562 89.9141 56.9531 89.9141C57.8282 89.9141 58.5907 89.8913 59.7123 89.8469C59.8468 89.9141 59.8919 90.3159 59.757 90.4019L59.2187 90.4469C57.8951 90.5579 57.8505 90.9153 57.8505 93.2592V101.029C57.8505 102.436 57.918 103.016 58.3218 103.44C58.5684 103.686 58.9945 103.953 60.7665 103.953C62.673 103.953 63.1443 103.864 63.5029 103.663C63.9491 103.395 64.5348 102.592 64.9838 101.453C65.1182 101.342 65.5415 101.431 65.5415 101.587C65.5415 101.833 64.9135 104.11 64.5995 104.712C63.4555 104.667 61.3243 104.645 59.014 104.645H56.9503C56.0082 104.645 55.2909 104.667 54.0343 104.712C53.8999 104.645 53.8547 104.288 53.9897 104.154L54.6623 104.087C55.9636 103.953 56.0082 103.641 56.0082 101.297V93.2592Z" fill="black"/>
<path d="M80.7155 99.4643C80.5587 98.9731 80.4689 98.9065 79.7962 98.9065H76.409C75.8484 98.9065 75.7134 98.9731 75.5567 99.4421L74.7714 101.785C74.4367 102.79 74.2783 103.395 74.2783 103.638C74.2783 103.906 74.3899 104.04 74.9287 104.085L75.6688 104.151C75.8255 104.262 75.8255 104.62 75.6242 104.71C75.0408 104.665 74.3452 104.665 73.2911 104.643C72.5509 104.643 71.7433 104.687 71.1381 104.71C71.0031 104.62 70.9585 104.266 71.0929 104.151L71.8331 104.085C72.3713 104.04 72.8649 103.795 73.1789 102.991C73.5828 101.964 74.2108 100.513 75.1529 98.0135L77.4397 91.9871C77.7537 91.1835 77.8859 90.7594 77.8212 90.402C78.3595 90.2461 78.741 89.847 78.9875 89.554C79.1219 89.554 79.2792 89.5989 79.3221 89.7549C79.6139 90.7373 79.9725 91.764 80.3094 92.7458L83.3866 101.719C84.0369 103.638 84.3286 103.973 85.293 104.085L85.8987 104.151C86.056 104.262 86.0103 104.62 85.8987 104.71C84.9796 104.665 84.1942 104.643 83.1847 104.643C82.1082 104.643 81.2559 104.687 80.605 104.71C80.426 104.62 80.4037 104.266 80.5604 104.151L81.2107 104.085C81.6821 104.04 81.9961 103.906 81.9961 103.683C81.9961 103.437 81.8845 103.036 81.7044 102.5L80.7155 99.4643ZM76.2745 97.4779C76.0949 97.9913 76.1172 98.0135 76.7453 98.0135H79.5045C80.1549 98.0135 80.1995 97.9242 79.9976 97.3214L78.7867 93.6833C78.6071 93.1477 78.4052 92.5449 78.2708 92.2774H78.2261C78.1587 92.3884 77.9344 92.9246 77.6874 93.5939L76.2745 97.4779Z" fill="black"/>
<path d="M22.9305 14.8456C23.0672 14.7557 23.1782 14.5931 23.2557 14.4699L23.4029 14.2368L23.4911 13.9887C23.664 13.4992 23.4074 13.1611 23.0844 12.8265C23.0047 12.7438 22.906 12.66 22.7916 12.6683C22.7374 12.6752 22.6864 12.6973 22.6444 12.7321C22.4486 12.8842 22.4168 13.1623 22.4006 13.4092L22.3482 14.1979C22.3337 14.3242 22.3381 14.4519 22.361 14.577C22.3729 14.6396 22.3983 14.6988 22.4355 14.7507C22.4727 14.8025 22.5207 14.8457 22.5763 14.8773C22.6324 14.9056 22.6953 14.9177 22.758 14.9121C22.8206 14.9065 22.8804 14.8835 22.9305 14.8456Z" fill="black"/>
<path d="M22.994 21.231C23.0879 21.0753 23.1665 20.911 23.2288 20.7404C23.3962 20.2686 23.1853 19.6731 22.8273 19.3484C22.6387 19.1774 21.8305 18.6491 21.7731 19.077C21.6699 19.8457 21.8422 20.631 22.1568 21.3431C22.2014 21.4436 22.2533 21.5484 22.3481 21.6051C22.5902 21.7505 22.825 21.5068 22.994 21.231Z" fill="black"/>
<path d="M23.1758 48.8652C23.6616 48.8097 23.4463 47.6947 23.3036 47.4444C23.192 47.2501 22.8696 47.0453 22.6616 47.2734C22.626 47.3204 22.6035 47.376 22.5963 47.4344C22.5405 47.7002 22.4848 47.9733 22.5283 48.2414C22.5718 48.5094 22.7458 48.7736 23.0085 48.8474C23.0626 48.8641 23.1194 48.8702 23.1758 48.8652Z" fill="black"/>
<path d="M23.5829 56.4551C24.4419 56.3441 23.8902 53.3648 22.8745 53.0989C21.5164 52.7431 22.4841 55.4161 22.763 55.8679C22.9186 56.1165 23.1188 56.3674 23.4033 56.4407C23.4617 56.4569 23.5227 56.4618 23.5829 56.4551Z" fill="black"/>
<path d="M26.6394 7.1131C27.2328 7.07203 27.3734 6.52867 27.7426 6.11407C27.9752 5.8521 28.6746 5.27766 28.369 4.88249C28.2864 4.77537 28.118 4.77149 27.9981 4.83587C27.8782 4.90025 27.7923 5.00848 27.7014 5.10894C27.432 5.40476 27.0923 5.62899 26.8089 5.91204C26.5256 6.1951 26.2941 6.5714 26.3298 6.96657C26.3271 6.98518 26.3287 7.00415 26.3344 7.02206C26.3402 7.03997 26.3499 7.05637 26.3629 7.07003C26.3758 7.08368 26.3917 7.09425 26.4094 7.10094C26.427 7.10763 26.446 7.11027 26.4648 7.10866C26.5228 7.11457 26.5811 7.11606 26.6394 7.1131Z" fill="black"/>
<path d="M23.5833 11.3855L23.639 11.5403C23.6613 11.5892 23.6948 11.6325 23.7188 11.6802C23.7784 11.7839 23.8463 11.8826 23.9218 11.9755C24.2186 12.3762 24.5036 12.7525 24.7702 13.0944C24.9013 13.2637 25.0329 13.4379 25.15 13.5795L25.3536 13.7848L25.5695 13.928C25.8367 14.0687 26.1469 14.1059 26.4401 14.0324C26.55 14.0082 26.6549 13.9654 26.7502 13.9058C26.8253 13.8697 26.8941 13.8221 26.9544 13.7648L27.1078 13.6266L27.6298 13.0283C27.7933 12.8357 27.9935 12.6026 28.2133 12.3268L28.5624 11.895C28.6182 11.8117 28.674 11.7285 28.7298 11.6402C28.7621 11.5503 28.7954 11.4578 28.8296 11.3627C28.8849 11.1568 28.8975 10.9419 28.8669 10.7309C28.8362 10.52 28.7628 10.3175 28.6511 10.1356C28.6054 10.0362 28.5178 9.96521 28.4509 9.88251C28.3745 9.79981 28.2685 9.70712 28.177 9.61832L27.5958 9.06608L27.0018 8.48942L26.8529 8.34123L26.8255 8.31292L26.8189 8.30626L26.8083 8.29794L26.7274 8.23023C26.6793 8.18547 26.6272 8.14516 26.5718 8.10979C26.5361 8.09911 26.5015 8.08499 26.4686 8.06761C26.2979 8.0076 26.1141 7.99418 25.9365 8.02876C25.7583 8.0865 25.5974 8.18761 25.4685 8.32291C25.0781 8.75194 24.6932 9.18152 24.2905 9.58502L24.136 9.74209C23.9129 10.1406 23.711 10.5474 23.5225 10.9598C23.5225 10.9953 23.5225 11.0303 23.5225 11.0664C23.5442 11.1701 23.5381 11.2878 23.5833 11.3855Z" fill="black"/>
<path d="M23.9038 18.2333C23.9256 18.281 23.9557 18.3237 23.9802 18.3698C24.0383 18.4712 24.1043 18.5679 24.1777 18.659C24.4672 19.053 24.7455 19.4216 25.006 19.7579L25.3752 20.2358L25.5732 20.4389C25.6429 20.49 25.716 20.5321 25.7852 20.5788C26.0477 20.7149 26.3512 20.7509 26.6385 20.6798C26.7461 20.6558 26.8489 20.6139 26.9425 20.556C27.0158 20.5203 27.0831 20.4737 27.1422 20.4178L27.2939 20.2818L27.8054 19.6946C27.966 19.5059 28.1612 19.2767 28.3788 19.0086L28.719 18.584C28.7714 18.5025 28.8244 18.4175 28.8791 18.3326L28.9761 18.064C29.0294 17.8628 29.041 17.653 29.0104 17.4472C28.9797 17.2414 28.9073 17.0439 28.7977 16.8668C28.7525 16.7702 28.6666 16.7003 28.6013 16.6215C28.5266 16.541 28.4217 16.4506 28.3319 16.364L27.7608 15.8245L27.1773 15.2612L27.0301 15.1169L26.9938 15.0802L26.9754 15.0619L26.971 15.0575L26.9972 15.0847L26.9871 15.0763L26.9068 15.0108C26.8597 14.9674 26.8085 14.9286 26.754 14.8949C26.7202 14.8862 26.6878 14.8732 26.6575 14.856C26.4952 14.7973 26.3198 14.7841 26.1505 14.8177C25.9807 14.874 25.8275 14.971 25.7043 15.1002C25.3256 15.5209 24.9429 15.9388 24.5514 16.3368L24.2586 16.6337L24.1855 16.7075C24.1961 16.6942 24.1559 16.7436 24.2078 16.6787L24.2039 16.6837L24.1955 16.6937L24.1794 16.7136L24.1465 16.7536L24.0148 16.9123C23.9451 17.0394 23.8274 17.2403 23.8118 17.454C23.785 17.5584 23.8045 17.6644 23.7939 17.7721C23.8185 17.8731 23.8112 17.988 23.8553 18.0829L23.9038 18.2333Z" fill="black"/>
<path d="M29.0519 25.392L29.1546 25.11C29.2112 24.8992 29.2242 24.6791 29.1928 24.4631C29.1615 24.2472 29.0864 24.0397 28.9722 23.8535C28.9253 23.7519 28.8355 23.6786 28.7669 23.5937C28.6888 23.5093 28.5806 23.4144 28.488 23.3234L27.8935 22.7584L27.2855 22.1673L27.1332 22.0158L27.1042 21.9858L27.0975 21.9797L27.0875 21.9714L27.0044 21.902C26.9551 21.8562 26.9017 21.8149 26.8449 21.7788C26.8082 21.7682 26.7728 21.7535 26.7395 21.735C26.5645 21.6733 26.3761 21.6595 26.194 21.695C26.0111 21.7539 25.846 21.8575 25.7137 21.9964C25.3166 22.4354 24.92 22.8755 24.5078 23.2885L24.2028 23.5993L24.1269 23.6764L24.1492 23.6487L24.1447 23.6537L24.1364 23.6642L24.1196 23.6853L24.0856 23.7275L23.9495 23.894C23.8748 24.0322 23.7521 24.2447 23.7365 24.4701C23.7091 24.5811 23.7298 24.6921 23.7197 24.8064C23.7459 24.9124 23.7387 25.0334 23.7861 25.1333L23.8419 25.2915C23.8653 25.342 23.8977 25.3864 23.9233 25.4347C23.9845 25.541 24.0542 25.6422 24.1319 25.7372C24.4359 26.1473 24.7276 26.5314 25.0004 26.8822C25.1342 27.0559 25.2692 27.2341 25.3908 27.3817L25.5994 27.592L25.8225 27.738C26.0963 27.8828 26.4144 27.9209 26.7149 27.8451C26.8274 27.8203 26.9348 27.7763 27.0323 27.7153C27.1092 27.6783 27.1797 27.6296 27.2414 27.571L27.3993 27.4289L27.9347 26.8184C28.1021 26.6213 28.3073 26.3827 28.5327 26.1002L28.8902 25.6561C28.9376 25.5673 28.9973 25.483 29.0519 25.392Z" fill="black"/>
<path d="M28.4839 31.3771C28.8069 31.3022 28.4231 30.7438 28.2775 30.5646C28.2022 30.4841 28.0974 30.3925 28.007 30.3054C27.5452 29.8691 27.1453 29.2619 26.539 29.0438C26.4539 29.0068 26.3611 28.9909 26.2685 28.9972C26.1893 29.0083 25.7832 29.3041 25.7726 29.3785C25.7224 29.7271 26.5792 30.4591 26.8179 30.6584C27.2351 31.0069 27.727 31.2739 28.2681 31.3716C28.3389 31.3877 28.4123 31.3896 28.4839 31.3771Z" fill="black"/>
<path d="M24.9691 47.901C25.0362 47.9725 25.111 48.0364 25.1922 48.0914L25.4098 48.2357C25.6792 48.3773 25.9916 48.4148 26.2871 48.3412C26.3978 48.3162 26.5034 48.2729 26.5995 48.213C26.6744 48.1766 26.7434 48.1293 26.8042 48.0725C27.0831 47.7712 27.3062 47.3616 26.8979 47.018C26.6904 46.8415 26.3959 46.811 26.1237 46.8115C25.8059 46.8108 25.4891 46.845 25.1789 46.9137C24.9987 46.9542 24.8007 47.0247 24.7226 47.1912C24.6155 47.4182 24.7778 47.7001 24.9691 47.901Z" fill="black"/>
<path d="M28.878 52.5709C28.9284 52.3789 28.939 52.1786 28.9092 51.9824C28.8794 51.7861 28.8098 51.5979 28.7046 51.4293C28.6616 51.3377 28.5796 51.2728 28.5172 51.1967C28.4458 51.1201 28.3454 51.0335 28.2595 50.9508L27.7123 50.4363L27.1545 49.8985L27.014 49.7609L26.9789 49.7259L26.9616 49.7087L26.9571 49.7043L26.9833 49.7309L26.9733 49.7232L26.8963 49.6604C26.8514 49.6187 26.8025 49.5815 26.7502 49.5494C26.7187 49.5417 26.6884 49.5296 26.6604 49.5134C26.5073 49.4589 26.3423 49.4468 26.1829 49.4784C26.0225 49.5314 25.8777 49.6229 25.7612 49.7448C25.3987 50.1472 25.0362 50.5468 24.658 50.927L24.3791 51.2106L24.3088 51.2805C24.3194 51.2678 24.2798 51.316 24.3311 51.2522L24.3272 51.2572L24.3194 51.2667L24.3033 51.2861L24.272 51.3238L24.1465 51.4753C24.0807 51.5947 23.9675 51.7845 23.9524 51.9876C23.9268 52.087 23.9446 52.188 23.9346 52.2901C23.9574 52.3861 23.9496 52.4955 23.9903 52.5859L24.0378 52.7291C24.0584 52.7746 24.0868 52.8151 24.1103 52.859C24.1649 52.9566 24.2278 53.0494 24.2982 53.1365C24.5771 53.5139 24.8393 53.8669 25.0875 54.191C25.2109 54.3501 25.3284 54.5026 25.44 54.6484L25.6291 54.8426C25.6954 54.8914 25.7652 54.932 25.831 54.9764C26.0817 55.107 26.3718 55.1416 26.6464 55.0735C26.7494 55.0509 26.8477 55.0109 26.937 54.9553C27.0073 54.9214 27.0719 54.8769 27.1283 54.8232C27.2198 54.7416 27.2689 54.6972 27.2717 54.6944L27.7603 54.1344C27.9131 53.9535 28.1 53.7342 28.3074 53.4773L28.6326 53.0716L28.7854 52.8307L28.878 52.5709Z" fill="black"/>
<path d="M28.2666 57.9802C28.198 57.9075 28.0992 57.8237 28.0178 57.7449L27.489 57.2515L26.9491 56.7353L26.813 56.6027L26.7796 56.5694L26.7623 56.5527L26.7584 56.5483L26.7846 56.5755L26.7751 56.5677L26.7009 56.5078C26.6578 56.468 26.6107 56.4327 26.5604 56.4023C26.5311 56.3956 26.5029 56.3847 26.4767 56.3701C26.3334 56.3203 26.1793 56.3095 26.0305 56.339C25.8799 56.3896 25.744 56.4759 25.6345 56.5905C25.2853 56.979 24.9334 57.3619 24.5714 57.7271L24.3014 57.9996L24.2334 58.0668C24.244 58.054 24.2044 58.1023 24.2557 58.0385L24.2518 58.0435L24.244 58.0524L24.2289 58.0707L24.1988 58.1073L24.0772 58.2527C24.0164 58.3637 23.9065 58.5447 23.8915 58.7378C23.8664 58.8327 23.8831 58.9287 23.873 59.0264C23.8942 59.118 23.8864 59.2223 23.9288 59.3089L23.9734 59.446C23.993 59.4899 24.0197 59.5282 24.0421 59.5703C24.0944 59.6641 24.1544 59.7534 24.2216 59.8373C24.486 60.2014 24.7404 60.5422 24.9785 60.8535L25.3165 61.2942L25.4978 61.4818C25.562 61.529 25.6283 61.5678 25.6919 61.6111C25.9329 61.7371 26.2119 61.7707 26.4761 61.7055C26.5749 61.6837 26.6693 61.6452 26.755 61.5917C26.8225 61.5591 26.8846 61.5164 26.9391 61.4652L27.0774 61.3408L27.5476 60.8014C27.6948 60.6271 27.8744 60.4162 28.0736 60.1681L28.3854 59.7768L28.5321 59.5448C28.5605 59.4649 28.5878 59.3822 28.6191 59.2984C28.6672 59.1143 28.6773 58.9224 28.6485 58.7343C28.6197 58.5462 28.5528 58.3659 28.4517 58.2045C28.4054 58.1162 28.3268 58.054 28.2666 57.9802Z" fill="black"/>
<path d="M40.0594 4.63339C40.0995 4.53737 40.1531 4.4519 40.1849 4.35144C40.2539 4.14045 40.266 3.91512 40.22 3.698C40.174 3.48088 40.0715 3.2796 39.9227 3.11431C39.7337 2.93887 39.5346 2.7745 39.3265 2.62201L38.6571 2.09752L37.97 1.54806L37.8824 1.47868L37.8779 1.47535L37.8724 1.47146L37.8261 1.44038L37.6403 1.31384C37.5951 1.29015 37.5474 1.27154 37.4981 1.25834C37.4528 1.23604 37.4042 1.22105 37.3542 1.21394L37.1869 1.17842L37.0162 1.17453C36.9603 1.16973 36.9039 1.17291 36.8489 1.18397C36.7924 1.18679 36.7363 1.19534 36.6815 1.2095C36.468 1.26336 36.2699 1.36554 36.1026 1.5081C35.6469 1.92047 35.1918 2.33285 34.7238 2.71803L34.3769 3.0083L34.2904 3.08046L34.2859 3.08489L34.2815 3.08933L34.2424 3.12929L34.0885 3.28692C33.9678 3.45047 33.8894 3.64109 33.8604 3.84194C33.8542 4.05562 33.8738 4.28595 33.987 4.48298C34.0344 4.58732 34.113 4.66669 34.1822 4.76659L34.4555 5.06186C34.8147 5.45037 35.1572 5.81612 35.4773 6.14913L35.6263 6.30509C36.8284 5.58246 38.2331 5.11662 39.8402 4.90757L39.8597 4.88759C39.9238 4.80322 39.9963 4.72219 40.0594 4.63339Z" fill="black"/>
<path d="M40.0192 23.7719C39.8337 23.6009 39.6386 23.4406 39.4347 23.2918L38.7737 22.7762L38.0972 22.2367L38.0113 22.1679H38.0079L38.0023 22.164L37.9566 22.1329L37.7742 22.0086C37.73 21.9853 37.6835 21.9667 37.6353 21.9531C37.591 21.9318 37.5435 21.9173 37.4948 21.9103L37.3325 21.8754L37.1651 21.8726C37.1092 21.867 37.0528 21.87 36.9978 21.8815C36.9428 21.8845 36.8883 21.8929 36.8349 21.9065C36.6265 21.9595 36.433 22.0593 36.2694 22.1984C35.8232 22.6041 35.373 23.0104 34.9123 23.3884L34.5704 23.6742L34.4856 23.7452L34.4806 23.7497L34.4773 23.753L34.4388 23.7924L34.2876 23.9473C34.1696 24.107 34.093 24.2933 34.0645 24.4895C34.0584 24.6982 34.0768 24.923 34.1878 25.1172C34.2335 25.2199 34.3105 25.2976 34.378 25.3947L34.6468 25.6856C34.9993 26.0696 35.3362 26.4287 35.6508 26.7567L35.8806 26.9982L35.9877 27.1092L36.1093 27.2085L36.2275 27.3062L36.3514 27.3728C36.4292 27.4209 36.5133 27.4582 36.6012 27.4838C36.7617 27.5396 36.9291 27.5732 37.0988 27.5837C37.2555 27.5693 37.4044 27.5776 37.5299 27.5349L37.7117 27.4888L37.8612 27.4194C37.9416 27.3875 38.0168 27.3439 38.0843 27.2901L38.2595 27.1613L38.8663 26.5936C39.0576 26.4104 39.2902 26.1895 39.549 25.9275L39.9584 25.5163C40.022 25.4352 40.0934 25.3553 40.1553 25.2676C40.1949 25.1738 40.2473 25.0895 40.2786 24.9901C40.3468 24.7823 40.3587 24.5602 40.3132 24.3464C40.2676 24.1325 40.1662 23.9343 40.0192 23.7719Z" fill="black"/>
<path d="M39.3091 30.0873L38.6074 29.5323L37.8879 28.9539L37.797 28.8801H37.7931L37.7886 28.8768L37.783 28.8729L37.7345 28.8396L37.5399 28.7064C37.4912 28.6811 37.4402 28.6605 37.3876 28.6448C37.3388 28.6212 37.2867 28.6051 37.2331 28.5971L37.0568 28.5582L36.875 28.5538C36.8148 28.5481 36.7541 28.5512 36.6948 28.5632C36.6348 28.5662 36.5752 28.5751 36.5169 28.5898C36.2883 28.6471 36.0762 28.7564 35.8972 28.909C35.4187 29.3419 34.9412 29.7754 34.451 30.1805L34.0873 30.4863L33.9969 30.5624L33.9886 30.5713L33.9479 30.6134L33.7867 30.7799C33.6577 30.9557 33.5745 31.1605 33.5446 31.376C33.5396 31.6036 33.5619 31.8472 33.6835 32.0565C33.7337 32.1675 33.8179 32.2513 33.8915 32.3562L34.1799 32.6648C34.558 33.0727 34.9195 33.454 35.2564 33.802L35.5023 34.059L35.6172 34.1766L35.7472 34.2826L35.8738 34.3864L36.0066 34.4575C36.0899 34.5093 36.18 34.5494 36.2743 34.5768C36.4458 34.6361 36.6246 34.6718 36.8058 34.6828C36.9732 34.6667 37.1316 34.6756 37.266 34.6273L37.4601 34.5779L37.6196 34.5035C37.7064 34.4699 37.7876 34.4235 37.8606 34.3659L38.0469 34.2283L38.6955 33.6227C38.8997 33.4279 39.1484 33.192 39.4251 32.9123L39.8635 32.4738C39.9316 32.3878 40.0085 32.3029 40.0749 32.2097C40.1173 32.1092 40.1742 32.0187 40.2082 31.9127C40.2817 31.6902 40.2953 31.4525 40.2476 31.2231C40.1999 30.9938 40.0927 30.7809 39.9366 30.6057C39.7379 30.4207 39.5283 30.2476 39.3091 30.0873Z" fill="black"/>
<path d="M39.7538 37.1671L39.0716 36.6321L38.3728 36.0715C38.3728 36.0715 38.2841 36.0005 38.2713 35.991L38.2244 35.9594L38.0353 35.8301C37.9887 35.8065 37.9397 35.7879 37.8892 35.7746C37.8426 35.7517 37.7927 35.7362 37.7414 35.7285L37.5741 35.6919L37.3989 35.688C37.1585 35.6508 36.4663 35.8112 36.3074 36.0288C36.019 36.4239 36.5929 36.8335 36.8824 36.9973C37.7113 37.4674 38.6115 37.8448 39.5597 37.9463C39.7136 37.963 39.8815 37.9691 40.0109 37.8836C40.3857 37.6311 39.9412 37.3142 39.7538 37.1671Z" fill="black"/>
<path d="M34.4019 58.4853C34.3422 58.5047 34.278 58.5575 34.1838 58.6518C34.0621 58.8164 33.9831 59.0084 33.954 59.2107C33.9484 59.4255 33.9679 59.6547 34.0823 59.8551C34.1291 59.96 34.2083 60.0399 34.278 60.1404L34.553 60.4368C34.9133 60.8253 35.258 61.1944 35.5793 61.5285L35.8141 61.7749L35.9257 61.8859L36.0495 61.9875L36.1705 62.0868L36.2972 62.1551C36.3767 62.2046 36.4626 62.2431 36.5526 62.2694C36.7163 62.3264 36.8871 62.3607 37.0602 62.3715C37.2202 62.3565 37.3725 62.3654 37.5008 62.321L37.6865 62.2744L37.8394 62.2028C37.9221 62.1708 37.9995 62.1266 38.0692 62.0718L38.2482 61.9397L38.8679 61.3603C39.0943 61.1488 39.5026 60.8397 39.212 60.51C38.9677 60.2325 38.2912 60.1592 37.9626 60.0421C37.2569 59.7927 36.5701 59.4933 35.9073 59.1463C35.5509 58.9582 35.1638 58.8317 34.8113 58.6357C34.5971 58.5214 34.5073 58.4509 34.4019 58.4853Z" fill="black"/>
<path d="M38.8946 64.6248C38.6743 64.4533 38.4601 64.2729 38.2421 64.1003C38.2421 64.1003 38.1589 64.0342 38.1495 64.0276L38.1054 63.9976L37.9286 63.8777C37.8864 63.8558 37.8419 63.8387 37.7958 63.8266C37.7538 63.8065 37.7088 63.793 37.6625 63.7867L37.5075 63.7539H37.348C37.2954 63.7491 37.2424 63.7521 37.1907 63.7628C37.1383 63.7657 37.0864 63.7736 37.0356 63.7867C36.837 63.8372 36.6525 63.9321 36.4963 64.0642C36.296 64.2451 35.5787 64.6636 35.7834 64.9866C35.842 65.0682 35.9224 65.1316 36.0155 65.1698C36.291 65.2991 36.479 65.2475 36.7539 65.2392C37.1237 65.2281 37.5136 65.3141 37.8829 65.3502C38.3051 65.3885 39.0268 65.6621 39.4206 65.4251C39.7859 65.2031 39.4825 65.0488 39.2533 64.8901C39.1295 64.8035 39.0112 64.7152 38.8946 64.6248Z" fill="black"/>
<path d="M39.8573 0.823641C39.8518 1.03344 39.8696 1.25822 39.9812 1.45247C40.0269 1.55515 40.1039 1.63396 40.1719 1.72998L40.4413 2.02081C40.7938 2.40543 41.1313 2.76508 41.4453 3.0931L41.6751 3.33508L41.7822 3.44609L41.9038 3.54599L42.0226 3.64367L42.1464 3.71028C42.2243 3.75867 42.3086 3.79603 42.3968 3.82128C42.5572 3.87747 42.7247 3.91128 42.8944 3.92174C43.0511 3.90675 43.2006 3.91563 43.3266 3.87234L43.5085 3.82683L43.6585 3.7569C43.7389 3.72499 43.8141 3.68141 43.8816 3.62758L44.0568 3.49882L44.6647 2.93048C44.856 2.74677 45.0892 2.52532 45.348 2.26446L45.7579 1.85209C45.8221 1.77105 45.8935 1.69113 45.9554 1.60344C45.995 1.50908 46.0474 1.42472 46.0786 1.32593C46.1462 1.11838 46.1578 0.896829 46.1123 0.683427C46.0667 0.470025 45.9657 0.272253 45.8193 0.109892L45.8059 0.0976798C45.1037 0.0344081 44.4801 0 43.9502 0C42.6335 0 41.3756 0.0601267 40.1764 0.18038L40.0788 0.279726C39.9613 0.440247 39.8853 0.627025 39.8573 0.823641Z" fill="black"/>
<path d="M40.7011 29.1476L40.961 29.4301C41.3018 29.8031 41.6303 30.1517 41.9321 30.4708L42.1552 30.7056L42.2584 30.8127L42.376 30.9098L42.4876 31.0042L42.6075 31.0691C42.6828 31.1169 42.7642 31.1542 42.8496 31.1801C43.0048 31.2344 43.1668 31.2673 43.3309 31.2778C43.4826 31.2634 43.6271 31.2722 43.7493 31.2301L43.9255 31.1862L44.0705 31.1185C44.1492 31.0879 44.2229 31.0458 44.2892 30.9936L44.4565 30.8687L45.0449 30.3182C45.2301 30.1406 45.456 29.9258 45.7059 29.6705L46.1019 29.2708C46.1638 29.192 46.2335 29.1149 46.2932 29.03C46.3306 28.9384 46.3814 28.8568 46.4109 28.7613C46.4758 28.561 46.4865 28.3472 46.442 28.1414C46.3974 27.9356 46.2992 27.7451 46.1571 27.5892C45.9764 27.4233 45.7862 27.2678 45.5877 27.1235L44.9462 26.624L44.2892 26.1023L44.2055 26.0362L44.1999 26.0323L44.1559 26.0024L43.9785 25.8825C43.9362 25.8607 43.8917 25.8434 43.8458 25.8309C43.8033 25.8108 43.7579 25.7973 43.7113 25.7909L43.5563 25.7576H43.3962C43.3432 25.7528 43.2899 25.7558 43.2378 25.7665C43.1853 25.7693 43.1331 25.7773 43.0822 25.7903C42.8827 25.8406 42.6975 25.9355 42.5406 26.0679C42.1055 26.4608 41.6716 26.8549 41.2237 27.2206L40.8924 27.4981L40.8104 27.567L40.8065 27.5703L40.8032 27.5736L40.7658 27.6119L40.6185 27.7618C40.5049 27.9139 40.4308 28.0916 40.4027 28.279C40.396 28.4794 40.4122 28.6953 40.5187 28.8829C40.5622 28.9767 40.6358 29.0522 40.7011 29.1476Z" fill="black"/>
<path d="M46.7969 35.6485C46.8679 35.4327 46.8806 35.2021 46.8339 34.9799C46.7872 34.7576 46.6827 34.5514 46.5309 34.382C46.3382 34.2025 46.1352 34.0344 45.9229 33.8786L45.2391 33.3419C45.0093 33.1569 44.7758 32.9696 44.5385 32.7802L44.4498 32.7092L44.4443 32.7053L44.4387 32.7014L44.3913 32.6692L44.2022 32.5399C44.1554 32.5163 44.1062 32.4977 44.0555 32.4844C44.0089 32.4616 43.959 32.446 43.9077 32.4383L43.7376 32.4017L43.5619 32.3978C43.5039 32.3921 43.4455 32.3951 43.3884 32.4067C43.3308 32.41 43.2737 32.4187 43.2177 32.4327C42.998 32.4882 42.794 32.5932 42.6215 32.7397C42.1563 33.1609 41.6917 33.5822 41.2143 33.9757L40.8606 34.2726L40.7725 34.3464V34.3492L40.7658 34.3559L40.7262 34.3969L40.5689 34.5579C40.4449 34.7267 40.3645 34.9232 40.3347 35.1301C40.3296 35.3521 40.3503 35.5847 40.4669 35.7873C40.5154 35.8944 40.5963 35.976 40.6671 36.0781L40.946 36.3784C41.313 36.7757 41.6633 37.1476 41.9901 37.4884L42.2294 37.7387L42.3409 37.853L42.467 37.9563L42.5897 38.0573L42.7191 38.1267C42.7998 38.177 42.8871 38.216 42.9785 38.2427C43.145 38.3005 43.3188 38.3352 43.495 38.3459C43.6573 38.3309 43.8118 38.3392 43.9412 38.2948L44.1297 38.2471L44.2847 38.1744C44.3689 38.1419 44.4477 38.097 44.5185 38.0412L44.7003 37.9074L45.3306 37.318C45.5286 37.1287 45.7706 36.899 46.0389 36.6264L46.465 36.2002C46.5314 36.1164 46.6056 36.0337 46.6703 35.9427C46.7077 35.8389 46.7629 35.7512 46.7969 35.6485Z" fill="black"/>
<path d="M40.4598 62.1017C40.4598 62.1017 40.3744 62.1739 40.3655 62.1822L40.3265 62.2216L40.1736 62.3781C40.0539 62.5399 39.9761 62.7287 39.9472 62.9276C39.9416 63.139 39.96 63.3666 40.0727 63.5625C40.119 63.6663 40.1971 63.7451 40.2657 63.8445C40.3571 63.9433 40.4475 64.0415 40.5373 64.1375C41.0393 64.6814 41.3962 65.1654 42.1364 65.3513C42.8453 65.53 43.441 65.3513 44.1393 65.3236C44.4467 65.3108 44.4885 65.3386 44.7445 65.106C45.0005 64.8735 45.2465 64.6276 45.4886 64.3806L45.9024 63.9655C45.9666 63.8839 46.0391 63.8034 46.1015 63.7151C46.1412 63.6202 46.1941 63.5348 46.2259 63.4376C46.2943 63.2283 46.3061 63.0047 46.2603 62.7893C46.2145 62.574 46.1126 62.3744 45.9649 62.2105C45.7771 62.0366 45.5794 61.8737 45.3725 61.7226C45.0334 61.459 44.7032 61.1443 44.3128 60.9534C44.1538 60.8757 43.9681 60.8823 43.7913 60.8918C42.6758 60.9517 41.6757 61.0888 40.8061 61.8164L40.4598 62.1017Z" fill="black"/>
<path d="M49.8084 7.39833L49.8246 7.39389L50.017 7.34561L50.1749 7.27179C50.2605 7.23833 50.3408 7.19251 50.4131 7.13581L50.596 7.00094L51.2363 6.40208C51.4382 6.20894 51.6825 5.97583 51.9581 5.69832L52.392 5.26486C52.4595 5.17938 52.5353 5.09502 52.6012 5.00289C52.6435 4.90354 52.6993 4.81418 52.7328 4.70928C52.8054 4.48928 52.8187 4.25419 52.7714 4.02746C52.7242 3.80073 52.6179 3.59031 52.4634 3.41721C52.2674 3.23375 52.0606 3.06196 51.8443 2.90271L51.1493 2.35602L50.437 1.78324L50.3467 1.71053H50.3439L50.3389 1.70665L50.3327 1.70221L50.2848 1.66946L50.0923 1.53793C50.0446 1.51266 49.9943 1.49256 49.9423 1.47798C49.8944 1.45409 49.843 1.43798 49.79 1.43025L49.616 1.39251L49.4364 1.38807C49.3771 1.38264 49.3174 1.38582 49.259 1.39751C49.1999 1.40046 49.1412 1.40939 49.0839 1.42415C48.8578 1.48033 48.6478 1.58785 48.4704 1.73829C47.9968 2.16676 47.5222 2.59634 47.0386 2.99706L46.6788 3.29954L46.5896 3.37447L46.5818 3.38224L46.5411 3.42387L46.3815 3.59037C46.2543 3.76367 46.1721 3.96558 46.1423 4.17813C46.1372 4.40014 46.159 4.64268 46.2789 4.8497C46.3285 4.9607 46.4117 5.04229 46.4842 5.14608L46.7692 5.4519C47.0034 5.70498 47.2282 5.94308 47.4474 6.17342C48.1014 6.53226 48.7212 6.9495 49.2992 7.41998C49.4678 7.39573 49.6384 7.38847 49.8084 7.39833Z" fill="black"/>
<path d="M47.2489 26.0291C47.0704 26.4093 47.9261 27.0404 48.1363 27.2602L48.3762 27.511L48.4877 27.6259L48.6143 27.7292L48.7376 27.8302L48.867 27.9001C48.9481 27.9506 49.0357 27.9898 49.1275 28.0167C49.2944 28.0746 49.4686 28.1093 49.6451 28.1199C49.8079 28.1049 49.963 28.1132 50.0941 28.0683L50.2832 28.0205L50.4393 27.9478C50.7935 27.7947 51.2537 27.5382 51.3195 27.1242C51.3792 26.7473 51.1388 26.3722 50.8175 26.1646C50.4962 25.957 50.1058 25.8871 49.726 25.8354C49.0812 25.75 48.4264 25.7117 47.7799 25.7799C47.6126 25.7977 47.4352 25.8277 47.3136 25.9431C47.2868 25.9675 47.2648 25.9967 47.2489 26.0291Z" fill="black"/>
<path d="M46.5359 32.413C46.5805 32.5129 46.6552 32.5895 46.721 32.6855L46.9843 32.9708C47.329 33.3476 47.6581 33.7001 47.966 34.0214L48.1891 34.2584L48.2934 34.3694L48.4122 34.4676L48.5282 34.5625L48.6492 34.6286C48.7253 34.6767 48.8077 34.7141 48.8941 34.7396C49.0508 34.7947 49.2145 34.8279 49.3804 34.8384C49.5338 34.824 49.68 34.8323 49.8032 34.7901L49.9812 34.7457L50.1278 34.6774C50.2081 34.6468 50.2833 34.6043 50.351 34.5514L50.5222 34.4249L51.1168 33.8699C51.3036 33.6906 51.5317 33.4736 51.7861 33.2155L52.1871 32.812C52.2496 32.7327 52.3193 32.6544 52.3801 32.5689C52.418 32.4768 52.4693 32.3941 52.4995 32.2975C52.5652 32.0949 52.5762 31.8786 52.5314 31.6705C52.4865 31.4623 52.3874 31.2695 52.244 31.1115C52.0616 30.9435 51.8696 30.7862 51.6689 30.6403L51.0208 30.1363L50.3576 29.6085L50.2734 29.5419L50.2678 29.538L50.2232 29.5075L50.0442 29.3859C50.0011 29.3639 49.9559 29.3464 49.9092 29.3338C49.8663 29.313 49.8204 29.2991 49.7731 29.2927L49.6153 29.2588H49.453C49.3994 29.254 49.3455 29.257 49.2929 29.2677C49.2394 29.2708 49.1864 29.279 49.1345 29.2921C48.9319 29.3438 48.744 29.441 48.5851 29.5763C48.1456 29.9731 47.7072 30.3711 47.2554 30.7418L46.9207 31.0193L46.8376 31.0887L46.8331 31.0926L46.8298 31.0959L46.7924 31.1348L46.6435 31.2857C46.5285 31.4405 46.4535 31.621 46.4249 31.8113C46.4115 32.0056 46.4282 32.2232 46.5359 32.413Z" fill="black"/>
<path d="M52.5903 39.4622C52.6294 39.3684 52.6818 39.2846 52.7125 39.1847C52.7794 38.9787 52.7908 38.7588 52.7455 38.547C52.7001 38.3353 52.5997 38.1391 52.4542 37.9781C52.2697 37.808 52.0757 37.6485 51.8731 37.5002L51.216 36.9879L50.5433 36.4518L50.458 36.3835H50.4547L50.4491 36.3796L50.4039 36.3491L50.2221 36.2253C50.1781 36.2023 50.132 36.1837 50.0843 36.1698C50.0403 36.1487 49.9933 36.1345 49.9449 36.1276L49.7842 36.0932L49.6169 36.0899C49.5621 36.085 49.5068 36.0882 49.4529 36.0993C49.3985 36.1021 49.3445 36.1103 49.2917 36.1237C49.0848 36.1766 48.8927 36.2757 48.7301 36.4135C48.2838 36.817 47.8376 37.221 47.3803 37.5968L47.0411 37.8809L46.9564 37.9514L46.9513 37.9559V37.9592L46.9128 37.998L46.7623 38.1518C46.6448 38.3102 46.5682 38.4949 46.5391 38.6896C46.533 38.8966 46.5509 39.1197 46.6607 39.3129C46.7065 39.4144 46.7829 39.4921 46.8498 39.5904L47.1176 39.8795C47.4678 40.2619 47.8025 40.6194 48.1154 40.9452L48.3435 41.1855L48.4495 41.2965L48.5705 41.3958L48.6882 41.4924L48.8115 41.559C48.8888 41.6071 48.9723 41.6444 49.0597 41.67C49.219 41.7256 49.3853 41.759 49.5539 41.7694C49.7095 41.7549 49.8578 41.7638 49.9828 41.7205L50.1635 41.6756L50.3124 41.6062C50.3927 41.5745 50.4679 41.5313 50.5355 41.478L50.7096 41.3498L51.3136 40.7853C51.5033 40.6033 51.7347 40.3829 51.9919 40.1193C52.1196 39.9911 52.2557 39.8546 52.3985 39.7103C52.4576 39.6287 52.529 39.5493 52.5903 39.4622Z" fill="black"/>
<path d="M48.2914 61.5877L48.393 61.6932L48.509 61.7892L48.6205 61.8824L48.7388 61.9468C48.813 61.9934 48.8933 62.0297 48.9775 62.0545C49.1307 62.1084 49.2906 62.1409 49.4527 62.1511C49.6027 62.1377 49.745 62.1461 49.8655 62.1044L50.0395 62.0612L50.1828 61.9945C50.2605 61.9644 50.3333 61.9229 50.3987 61.8713L50.566 61.7476L51.1466 61.2042C51.3296 61.0288 51.5521 60.8157 51.7992 60.5637L52.1897 60.1691C52.2504 60.092 52.3191 60.0154 52.3776 59.931C52.415 59.8411 52.4646 59.7606 52.4942 59.6668C52.6933 59.0241 52.3726 58.463 51.6843 58.7183C50.8666 59.0208 50.1332 59.5342 49.2988 59.8283C48.9005 59.9688 48.5012 60.0825 48.0957 60.1902C47.8564 60.254 47.5769 60.3506 47.5145 60.6342C47.4587 60.8867 47.9133 61.1892 48.0689 61.3557L48.2914 61.5877Z" fill="black"/>
<path d="M50.5595 63.5105C50.4955 63.4429 50.4232 63.3836 50.3443 63.334C50.2983 63.3108 50.2501 63.2922 50.2003 63.2785C50.1543 63.2564 50.1053 63.2412 50.0548 63.2335L49.8874 63.1974L49.7145 63.1936C49.6575 63.1884 49.6 63.1916 49.5439 63.203C49.4874 63.2059 49.4313 63.2145 49.3765 63.2285C49.1603 63.2832 48.9597 63.3867 48.7903 63.531C48.5572 63.7419 47.9687 63.9267 47.9124 64.2586C47.9027 64.3 47.9099 64.3435 47.9325 64.3796C47.9633 64.4127 48.0043 64.4346 48.049 64.4418C48.9002 64.6699 49.7268 64.4912 50.4636 64.0694C50.7676 63.8929 50.718 63.6825 50.5595 63.5105Z" fill="black"/>
<path d="M54.1676 2.46748L54.404 2.71557L54.5156 2.82658L54.6405 2.92925L54.7621 3.0286L54.8899 3.09798C54.97 3.14761 55.0565 3.18625 55.147 3.21286C55.3119 3.27025 55.4841 3.3048 55.6585 3.31554C55.8197 3.30056 55.973 3.30888 56.1047 3.26448L56.291 3.21731L56.4449 3.14571C56.5286 3.11347 56.6068 3.06874 56.677 3.01306C56.8671 2.8732 57.3201 2.68283 57.0311 2.43807C56.3473 1.86029 55.4644 1.5395 54.5708 1.46346C54.3544 1.44514 54.119 1.4457 53.9422 1.57113C53.5334 1.86196 53.9506 2.23992 54.1676 2.46748Z" fill="black"/>
<path d="M52.8385 7.58488C52.8837 7.68589 52.959 7.76304 53.026 7.86239L53.2914 8.14989C53.6389 8.52952 53.9714 8.88473 54.282 9.2083L54.5085 9.44751L54.6139 9.55852L54.7338 9.65675L54.851 9.75333L54.9731 9.81937C55.0499 9.86724 55.1328 9.90458 55.2196 9.93038C55.2797 9.9539 55.3417 9.97246 55.4048 9.98588C55.6297 9.95753 55.8574 9.9609 56.0814 9.99587L56.1371 9.98255L56.3168 9.93759L56.4646 9.86877C56.5449 9.83783 56.6202 9.79498 56.6877 9.74167L56.8606 9.61457L57.4602 9.05345C57.6487 8.87252 57.879 8.65384 58.1339 8.39409L58.5383 7.98727C58.6013 7.90734 58.6716 7.82853 58.733 7.74195C58.7715 7.64871 58.8233 7.56546 58.8535 7.46833C58.92 7.26383 58.9313 7.04552 58.8863 6.83529C58.8413 6.62506 58.7415 6.43032 58.5969 6.27061C58.4128 6.1012 58.2191 5.94239 58.0168 5.79496L57.3642 5.28656L56.6949 4.75375L56.6101 4.68659H56.6068L56.6012 4.68271L56.556 4.65218L56.3759 4.52952C56.3324 4.50642 56.2866 4.48782 56.2392 4.47402C56.1958 4.45308 56.1493 4.43904 56.1015 4.43239L55.9419 4.39798H55.778C55.7237 4.39317 55.669 4.39616 55.6156 4.40686C55.5616 4.40985 55.508 4.41822 55.4556 4.43184C55.25 4.48362 55.0591 4.5818 54.8978 4.71878C54.4549 5.1195 54.0126 5.52078 53.5592 5.89375L53.2245 6.1757L53.1403 6.24563L53.1358 6.24951L53.1325 6.2534L53.0946 6.29225L52.9451 6.44488C52.8278 6.6011 52.7512 6.78376 52.722 6.97658C52.7125 7.16973 52.7298 7.39063 52.8385 7.58488Z" fill="black"/>
<path d="M54.8875 16.5882C54.936 16.6348 54.9857 16.6798 55.0364 16.7225C55.3873 17.0194 55.7576 17.0056 56.201 16.8934L56.3924 16.8452L56.5502 16.7713C56.636 16.7385 56.7161 16.6926 56.7878 16.6354L56.9735 16.4988L57.6133 15.9011C57.8147 15.7085 58.0595 15.4754 58.3334 15.1984L58.7668 14.7655C58.8342 14.6806 58.9095 14.599 58.9754 14.5041C59.0172 14.4048 59.0735 14.3154 59.1064 14.2111C59.1788 13.9914 59.1921 13.7568 59.145 13.5304C59.0978 13.3041 58.9918 13.0941 58.8376 12.9212C58.6418 12.7385 58.4354 12.5672 58.2196 12.4084L57.5257 11.8622L56.8146 11.2906C56.8146 11.2906 56.7242 11.2184 56.7108 11.2084L56.6629 11.1757L56.4704 11.0441C56.4228 11.0192 56.3727 10.9991 56.321 10.9842C56.273 10.9607 56.2216 10.9448 56.1687 10.937L55.9952 10.8987L55.8162 10.8948C55.7569 10.8892 55.6972 10.8922 55.6388 10.9037C55.5799 10.9069 55.5214 10.9159 55.4642 10.9304C55.2394 10.987 55.0308 11.0945 54.8546 11.2445C54.617 11.4593 54.2572 11.6169 54.0737 11.865C53.7329 12.3284 53.618 12.9273 53.6565 13.4995C53.7028 14.18 53.9488 14.8199 54.1524 15.4576C54.2998 15.8891 54.5524 16.2775 54.8875 16.5882Z" fill="black"/>
<path d="M53.2372 28.7248C52.9779 29.1549 53.6338 29.6084 53.9105 29.8975L54.152 30.1501L54.2635 30.2655L54.3907 30.3699L54.5151 30.4714L54.645 30.5419C54.7269 30.5925 54.8153 30.6319 54.9077 30.659C55.4978 30.891 56.3127 30.8999 56.5052 30.1767C56.5441 30.0263 56.5472 29.8689 56.5143 29.717C56.4813 29.5652 56.4133 29.4231 56.3155 29.302C56.1237 29.0678 55.837 28.9351 55.5603 28.8097C55.0299 28.5699 54.4688 28.3252 53.887 28.3818C53.6885 28.4012 53.4866 28.4606 53.341 28.596C53.3007 28.6341 53.2658 28.6774 53.2372 28.7248Z" fill="black"/>
<path d="M53.0642 35.4521L53.3397 35.7485C53.7006 36.1403 54.0458 36.5072 54.3677 36.8413L54.603 37.0883L54.7146 37.1993L54.8384 37.3014L54.9594 37.4008L55.0866 37.469C55.1662 37.5186 55.2521 37.5573 55.3421 37.5839C55.5061 37.641 55.6773 37.6752 55.8508 37.6855C56.0108 37.6705 56.1631 37.6794 56.2919 37.635L56.4777 37.5884L56.6305 37.5173C56.7136 37.4849 56.7915 37.4404 56.8614 37.3852L57.0399 37.2537L57.6607 36.6731C57.8565 36.4861 58.0941 36.2602 58.359 35.9916L58.7779 35.5709C58.8432 35.4882 58.9162 35.4044 58.9798 35.3172C59.0205 35.2212 59.0741 35.1346 59.1064 35.0336C59.1758 34.8212 59.1879 34.5944 59.1416 34.3758C59.0953 34.1573 58.9922 33.9547 58.8426 33.7882C58.6527 33.6118 58.4526 33.4465 58.2436 33.2931L57.5692 32.7653L56.8782 32.2103L56.7906 32.1403L56.7861 32.137L56.78 32.1331L56.7337 32.1015L56.5469 31.9738C56.5011 31.9504 56.4531 31.9318 56.4035 31.9183C56.3579 31.8957 56.3089 31.8805 56.2585 31.8734L56.0912 31.8373L55.9194 31.834C55.8635 31.8289 55.8071 31.8318 55.752 31.8428C55.6955 31.8457 55.6395 31.8543 55.5847 31.8684C55.3674 31.9227 55.1657 32.0267 54.9957 32.172C54.5372 32.5866 54.0793 33.0045 53.6085 33.3891L53.2599 33.681L53.1735 33.7538L53.169 33.7576L53.1646 33.7626L53.125 33.8032L52.9705 33.9613C52.8487 34.1264 52.7696 34.3187 52.7401 34.5213C52.7345 34.7361 52.754 34.9653 52.8689 35.1668C52.9152 35.2712 52.995 35.3516 53.0642 35.4521Z" fill="black"/>
<path d="M57.7764 40.2642L57.1104 39.7442L56.4283 39.1992L56.3413 39.1303H56.3374L56.3313 39.1265L56.2855 39.0948L56.1015 38.9694C56.0567 38.9461 56.0096 38.9275 55.9609 38.9139C55.9159 38.8918 55.8677 38.877 55.8181 38.87L55.6547 38.8351L55.4874 38.8317C55.4315 38.8263 55.375 38.8293 55.32 38.8406C55.2636 38.8434 55.2075 38.8518 55.1527 38.8656C54.9416 38.9194 54.7456 39.0206 54.5799 39.1614C54.1275 39.5705 53.6757 39.9806 53.2111 40.3625L52.867 40.6505L52.7811 40.7221L52.7761 40.7266L52.7727 40.7304L52.7337 40.7704L52.5808 40.9264C52.4612 41.088 52.3834 41.2766 52.3544 41.4753C52.3488 41.6867 52.3672 41.9137 52.4799 42.1102C52.5262 42.214 52.6043 42.2928 52.6723 42.3916L52.944 42.6847C53.2998 43.0732 53.64 43.4339 53.9574 43.7647L54.1894 44.0084L54.2971 44.1194L54.4198 44.2198L54.5392 44.3175L54.6619 44.3824C54.7402 44.4311 54.8251 44.4684 54.914 44.4934C55.0758 44.5502 55.2447 44.5842 55.416 44.5945C55.5744 44.58 55.7244 44.5884 55.8516 44.5451L56.0345 44.4984L56.1857 44.4285C56.2674 44.3964 56.3441 44.3526 56.4132 44.2986L56.5895 44.1682L57.203 43.5954C57.3955 43.4112 57.6303 43.1881 57.8913 42.9222L58.3046 42.5076C58.3688 42.4255 58.4413 42.3455 58.5037 42.2567C58.5433 42.1618 58.5963 42.0769 58.6281 41.9792C58.6962 41.7699 58.708 41.5465 58.6622 41.3313C58.6164 41.116 58.5146 40.9165 58.3671 40.7526C58.1797 40.5788 57.9824 40.4158 57.7764 40.2642Z" fill="black"/>
<path d="M56.7387 50.7689C57.34 51.1269 57.9758 50.3865 58.3936 49.9663C58.5219 49.8376 58.6585 49.7005 58.8019 49.5556C58.8655 49.4751 58.9368 49.3958 58.9988 49.3081C59.0378 49.2143 59.0902 49.1305 59.1209 49.0306C59.1881 48.824 59.1996 48.6035 59.1541 48.3912C59.1087 48.1788 59.008 47.9821 58.8621 47.8206C58.6765 47.6492 58.4811 47.4886 58.277 47.3394L57.6189 46.826L56.944 46.2882L56.8469 46.2116L56.8017 46.1811L56.6193 46.0574C56.5754 46.034 56.529 46.0154 56.481 46.0019C56.4368 45.9807 56.3896 45.9663 56.341 45.9591L56.1798 45.9247H56.0125C55.9577 45.9193 55.9024 45.9223 55.8485 45.9336C55.7937 45.9366 55.7393 45.9449 55.6862 45.9586C54.878 46.1456 55.3761 47.0259 55.5897 47.476C55.7688 47.8523 55.918 48.242 56.0359 48.6415C56.1988 49.1965 56.1374 50.1989 56.5502 50.6212C56.6063 50.6784 56.6697 50.728 56.7387 50.7689Z" fill="black"/>
<path d="M54.4098 56.1448C53.9759 56.7198 53.3227 57.1804 53.9926 57.8798L54.1041 57.9969L54.2335 58.1029L54.3602 58.2056L54.4923 58.2771C54.5754 58.3285 54.6651 58.3685 54.759 58.3959C54.9299 58.455 55.1082 58.4905 55.2888 58.5014C55.4562 58.4858 55.614 58.4947 55.7479 58.4459C55.8159 58.4292 55.8801 58.4126 55.9409 58.397L56.1004 58.3232C56.1865 58.2895 56.2671 58.2433 56.3397 58.1861L56.526 58.0485L57.1724 57.4452C57.3754 57.2509 57.6236 57.0156 57.8975 56.7364L58.3348 56.2996C58.4028 56.2136 58.4793 56.1292 58.5451 56.036C58.588 55.9361 58.6444 55.8456 58.6784 55.7402C58.7518 55.5185 58.7654 55.2816 58.7178 55.0531C58.6702 54.8246 58.5632 54.6125 58.4073 54.4381C58.2101 54.2532 58.0021 54.0801 57.7843 53.9197C57.4496 53.6555 56.9108 53.0467 56.4334 53.1016C56.0987 53.1399 55.87 53.4513 55.7323 53.7554C55.3552 54.6013 54.9726 55.3983 54.4098 56.1448Z" fill="black"/>
<path d="M56.731 60.0488L56.7198 60.0399L56.7271 60.046L56.7215 60.0427L56.678 60.0133L56.5034 59.8945C56.4621 59.8734 56.4185 59.8568 56.3735 59.8451C56.332 59.8254 56.2878 59.8122 56.2424 59.8057L56.0901 59.7735H55.9334C55.8817 59.769 55.8297 59.772 55.7789 59.7824C55.7273 59.7853 55.6761 59.7933 55.6261 59.8063C55.4309 59.8564 55.2497 59.9499 55.0962 60.0799C54.6684 60.4684 54.2406 60.8569 53.7999 61.2149L53.4731 61.4869L53.3922 61.554L53.3883 61.5585L53.3515 61.5956L53.2065 61.7433C53.0951 61.8917 53.0223 62.0652 52.9945 62.2483C52.9878 62.4443 53.0029 62.6563 53.1061 62.8405C53.138 62.906 53.1777 62.9675 53.2243 63.0237C53.992 62.6398 54.7386 62.2155 55.461 61.7527C56.1392 61.3192 56.7528 60.9058 57.3139 60.5089L56.8152 60.1143L56.731 60.0488Z" fill="black"/>
<path d="M59.5904 9.78537C59.4633 9.63107 59.2781 9.52118 59.0801 9.52895C58.8062 9.54005 58.5781 9.7776 58.5145 10.0423C58.4509 10.3071 58.5145 10.5879 58.6261 10.8371C58.785 11.1957 58.8904 11.7951 59.2396 12.0365C59.9853 12.5499 59.8916 10.9598 59.8465 10.5652C59.8197 10.3293 59.779 10.0884 59.6568 9.88416C59.6373 9.84955 59.6151 9.81652 59.5904 9.78537Z" fill="black"/>
<path d="M59.4083 15.9312C59.357 15.9867 59.3112 16.0361 59.2599 16.0849L59.1958 16.1582C58.8299 16.5717 58.681 16.9835 58.6124 17.5402C58.5974 17.6183 58.6015 17.6988 58.6241 17.775C58.6893 17.9487 58.9136 18.0036 59.0982 17.9792C59.5444 17.9204 59.8952 17.5524 60.0642 17.1395C60.2332 16.7265 60.2505 16.2703 60.2645 15.8252C60.2946 14.9066 59.7457 15.5627 59.4083 15.9312Z" fill="black"/>
<path d="M59.1153 31.9384C59.0595 32.091 59.1198 32.3269 59.2073 32.4529C59.4483 32.8037 59.7567 33.1311 60.0351 33.4519C60.2453 33.6956 60.537 34.1651 60.8946 34.2145C61.1656 34.2523 61.3146 33.9409 61.1857 33.7189C61.1199 33.6079 60.9107 33.5152 60.8109 33.4064C60.6553 33.2366 60.508 33.0573 60.3563 32.8836C60.0496 32.5334 59.9659 31.9301 59.4383 31.8035C59.2514 31.7597 59.1538 31.8274 59.1153 31.9384Z" fill="black"/>
<path d="M62.2084 35.7241L62.0583 35.5881L62.0656 35.5953L62.045 35.5792L62.0031 35.5476L61.9195 35.4837L61.8352 35.4199L61.7756 35.3983C61.7365 35.3866 61.7075 35.3688 61.664 35.3544C61.4779 35.3027 61.2821 35.2958 61.0929 35.3344C60.9086 35.3883 60.74 35.4856 60.6015 35.618C60.1977 36.0271 59.7944 36.4367 59.3744 36.8197L59.0682 37.1116L58.9912 37.1832L58.9873 37.1871V37.1904L58.9527 37.2298L58.8155 37.3852C58.7391 37.5079 58.6242 37.7099 58.6069 37.9197C58.5896 38.1295 58.593 38.3471 58.6805 38.5402C58.7168 38.6394 58.7671 38.7328 58.83 38.8177C58.8995 38.9172 58.974 39.0132 59.0531 39.1052C59.3649 39.4904 59.6667 39.8506 59.9455 40.1797C60.085 40.3407 60.2166 40.5127 60.3482 40.6409C60.4748 40.7701 60.6237 40.8756 60.7878 40.9523C61.1001 41.1044 61.4231 41.0816 61.6623 41.0283L61.8336 40.9801C61.8854 40.9601 61.9295 40.9312 61.9736 40.9096C62.0492 40.8763 62.1194 40.8317 62.1816 40.7775L62.3411 40.6459L62.8861 40.0737C63.0573 39.8894 63.2659 39.6669 63.4963 39.4027L63.861 38.9892C63.8895 38.9481 63.9168 38.9054 63.9492 38.8643C63.846 38.5224 63.7367 38.1883 63.6145 37.8725C63.3987 37.3318 63.1458 36.8064 62.8576 36.3002L62.8247 36.2719L62.2084 35.7241Z" fill="black"/>
<path d="M59.4226 46.2224C59.7338 46.607 60.0322 46.9666 60.3116 47.2952C60.4505 47.4556 60.5816 47.6282 60.7132 47.7553C60.8392 47.8845 60.9878 47.9898 61.1516 48.0661C61.4634 48.2182 61.7858 48.1954 62.0245 48.1421L62.1958 48.0939C62.2434 48.0729 62.2899 48.0496 62.3352 48.0239C62.4109 47.9906 62.481 47.9461 62.5432 47.8918L62.7022 47.7603L63.2466 47.1897C63.4173 47.0055 63.6253 46.7835 63.8551 46.5193C63.97 46.39 64.0916 46.2518 64.2199 46.1064C64.2757 46.0264 64.3387 45.9465 64.3933 45.8605C64.4274 45.7695 64.4692 45.6845 64.4993 45.5919C64.5569 45.3911 64.5684 45.1799 64.5328 44.9742C64.4973 44.7684 64.4157 44.5732 64.2941 44.403C64.2264 44.3201 64.1534 44.2417 64.0754 44.1682C63.9789 44.0855 63.8819 44.0017 63.7837 43.9163L63.1836 43.3945C62.9817 43.2158 62.7771 43.034 62.57 42.849L62.4194 42.7119L62.4278 42.7202L62.4066 42.7047L62.3653 42.6725L62.2817 42.6092L62.198 42.5454L62.1378 42.5243C62.0993 42.5126 62.0703 42.4943 62.0295 42.4799C61.8439 42.4286 61.6488 42.422 61.4601 42.4605C61.2761 42.5142 61.1079 42.6113 60.9698 42.7435C60.5665 43.1514 60.1644 43.5605 59.7472 43.9423L59.4387 44.231L59.3618 44.3026L59.3584 44.3059L59.3551 44.3092L59.3205 44.3486L59.1838 44.5035C59.1074 44.6261 58.9931 44.8276 58.9752 45.0368C58.9574 45.2461 58.9618 45.4631 59.0489 45.6562C59.0844 45.7555 59.1346 45.8491 59.1978 45.9337C59.2524 46.0259 59.35 46.1286 59.4226 46.2224Z" fill="black"/>
<path d="M63.1864 50.4125C63.012 50.2034 62.8196 50.0099 62.6113 49.8342C62.6113 49.8342 62.4613 49.6977 62.468 49.7049L62.4473 49.6888L62.4055 49.6572L62.3218 49.5933L62.2376 49.5295L62.1779 49.5079C62.1389 49.4962 62.1099 49.4779 62.0664 49.464C61.8799 49.4123 61.6838 49.4055 61.4941 49.444C61.3096 49.4979 61.1409 49.5952 61.0022 49.7277C60.5978 50.1373 60.1945 50.5474 59.7751 50.9304L59.4655 51.2195L59.3818 51.2983L59.3478 51.3378L59.2101 51.4932C59.1336 51.6164 59.0187 51.8184 59.0015 52.0282C58.9842 52.238 58.9875 52.4561 59.0751 52.6498C59.1113 52.749 59.1616 52.8424 59.2246 52.9273C59.2803 53.0183 59.3779 53.121 59.4477 53.2154C59.76 53.6039 60.0612 53.9613 60.3401 54.291C60.4795 54.4514 60.6112 54.624 60.7428 54.7522C60.8693 54.8815 61.0182 54.9869 61.1823 55.0636C61.4952 55.2162 61.8187 55.1934 62.058 55.1402L62.2292 55.0913C62.2772 55.0705 62.324 55.047 62.3692 55.0208C62.4149 54.9991 62.459 54.9744 62.5014 54.947C62.6834 54.5999 62.8476 54.2439 62.9934 53.8803C63.3124 53.0783 63.6376 52.4028 63.5802 51.5154C63.5551 51.0297 63.4184 50.7045 63.1864 50.4125Z" fill="black"/>
<path d="M59.072 58.2634L59.0703 58.2657L59.0766 58.2583L59.072 58.2634Z" fill="black"/>
<path d="M61.1047 56.3634C60.9608 56.4222 60.7701 56.6231 60.6518 56.7369C60.2458 57.1332 59.8553 57.5445 59.4364 57.928L59.1291 58.2144L59.0466 58.2926L59.012 58.332L58.8759 58.4858C58.7002 58.685 58.5836 59.1046 58.9144 59.199C59.3009 59.31 59.7895 58.5391 60.0121 58.317C60.4354 57.8952 61.2319 57.318 61.2888 56.6631C61.3144 56.3656 61.2274 56.3151 61.1047 56.3634Z" fill="black"/>
<path d="M28.8721 61.6433L28.8613 61.657L28.8677 61.6492L28.8721 61.6433Z" fill="black"/>
<path d="M33.402 63.5447C33.532 63.4009 33.6333 63.2338 33.7004 63.0524C33.7549 62.849 33.7672 62.6367 33.7367 62.4285C33.7062 62.2202 33.6335 62.0203 33.5231 61.8408C33.4773 61.7431 33.3909 61.6743 33.3245 61.591C33.2492 61.51 33.1443 61.4179 33.0534 61.3302L32.4784 60.7851L31.8911 60.2151L31.7432 60.0686C31.7432 60.0686 31.717 60.0414 31.7098 60.0348L31.6997 60.0264L31.6194 59.9593C31.572 59.9151 31.5204 59.8755 31.4655 59.8411C31.4306 59.8309 31.3969 59.8169 31.3651 59.7994C31.1973 59.741 31.0169 59.728 30.8425 59.7617C30.6675 59.8187 30.5096 59.918 30.3829 60.0509C29.9997 60.4749 29.6165 60.8995 29.2177 61.298L28.9232 61.5982L28.8496 61.6732C28.859 61.6615 28.8312 61.6954 28.859 61.6604L28.8429 61.6809L28.81 61.7214L28.6789 61.8824C27.8367 62.9131 29.2255 63.7384 30.0304 64.0425C30.606 64.2595 31.2268 64.4033 31.8364 64.32C32.3992 64.2401 33.0166 63.9776 33.402 63.5447Z" fill="black"/>
<path d="M29.1901 54.6567L29.1159 54.7322C29.1259 54.7194 29.0869 54.7677 29.1332 54.71L29.1254 54.72L29.1086 54.7405L29.0757 54.7816L28.943 54.9442C28.8699 55.0785 28.7505 55.285 28.7355 55.5048C28.7082 55.6125 28.7288 55.7213 28.7188 55.8323C28.7438 55.9355 28.7372 56.0543 28.7829 56.1508L28.8387 56.3051C28.861 56.354 28.8944 56.3973 28.9179 56.445C28.9775 56.5485 29.0454 56.647 29.1209 56.7397C29.4171 57.1393 29.7015 57.514 29.9676 57.8564C30.0981 58.0262 30.2297 58.1999 30.3469 58.3415L30.5504 58.5463L30.7657 58.6889C30.889 58.7546 31.0235 58.7969 31.1623 58.8138C31.193 58.8177 31.2231 58.8199 31.2532 58.8249C31.3813 58.8332 31.5098 58.8225 31.6347 58.7933C31.7445 58.769 31.8492 58.7262 31.9443 58.6667C32.0193 58.6308 32.0882 58.5834 32.1484 58.5263L32.3035 58.3864L32.8245 57.7892C33.4252 57.101 32.0492 56.0903 31.6532 55.5942C31.3798 55.2534 31.1171 54.9026 30.8723 54.5396C30.6932 54.2749 30.4891 53.8736 30.0953 53.9341C29.8376 53.9757 29.6625 54.1778 29.4918 54.352L29.1901 54.6567Z" fill="black"/>
<path d="M33.2844 34.1491C33.2357 34.0613 33.1763 33.9799 33.1076 33.9065C33.0357 33.8294 32.9341 33.74 32.8477 33.6585L32.2961 33.1395L31.7327 32.5967L31.591 32.458L31.5553 32.4224L31.5336 32.4008L31.5593 32.4274L31.5498 32.4197L31.4722 32.3564C31.4269 32.3145 31.3774 32.2773 31.3244 32.2454C31.2925 32.2369 31.2618 32.2244 31.233 32.2082C31.078 32.153 30.9108 32.1407 30.7494 32.1727C30.5868 32.2261 30.44 32.3188 30.3221 32.4424C30.0566 32.7366 29.9178 33.1084 30.1297 33.4858C30.2312 33.6651 30.3946 33.8 30.5547 33.9299C30.8475 34.168 31.1404 34.4066 31.4471 34.6303C31.7773 34.8734 32.141 35.1054 32.5504 35.1409C32.7796 35.1603 33.0245 35.1098 33.1969 34.9583C33.459 34.7252 33.4283 34.4122 33.2844 34.1491Z" fill="black"/>
<path d="M33.3625 27.2806C33.3195 27.1896 33.2381 27.1247 33.1756 27.0492C33.1132 26.9737 33.0044 26.8866 32.9191 26.8044L32.3736 26.2927L31.8158 25.7571L31.6753 25.62L31.6407 25.5851L31.6234 25.5679L31.6189 25.5634L31.6446 25.5906L31.6351 25.5828L31.5587 25.5201C31.5139 25.4785 31.4652 25.4413 31.4131 25.4091C31.3819 25.4014 31.3519 25.3894 31.3239 25.3736C31.1719 25.3193 31.008 25.3074 30.8498 25.3392C30.6904 25.3918 30.5465 25.4827 30.4309 25.6039C30.07 26.0041 29.7058 26.402 29.3321 26.7806L29.0532 27.0631L28.9835 27.133C28.9935 27.1197 28.9539 27.168 29.0052 27.1047L29.0013 27.1091L28.9935 27.1191L28.9779 27.138L28.9467 27.1757L28.8212 27.3267C28.7565 27.4449 28.6433 27.6342 28.6288 27.8356C28.6025 27.9344 28.6204 28.0349 28.6104 28.137C28.6332 28.2319 28.6254 28.3407 28.6661 28.4312L28.7135 28.5738C28.7336 28.6188 28.7621 28.6593 28.7855 28.7031C28.8402 28.8005 28.9027 28.8933 28.9723 28.9806C29.2473 29.3564 29.5111 29.7077 29.7582 30.0291L30.1091 30.4842L30.297 30.6779C30.3634 30.7267 30.4326 30.7672 30.4984 30.8116C30.7482 30.9413 31.037 30.9756 31.3105 30.9082C31.4129 30.8858 31.5106 30.846 31.5994 30.7905C31.6694 30.7567 31.7337 30.7123 31.7902 30.659L31.9341 30.5297L32.4216 29.9708C32.5738 29.7904 32.7601 29.5723 32.9665 29.3164L33.29 28.9118L33.4423 28.6726C33.472 28.5894 33.5023 28.5041 33.5332 28.4167C33.5835 28.2257 33.5944 28.0265 33.565 27.8313C33.5357 27.636 33.4668 27.4486 33.3625 27.2806Z" fill="black"/>
<path d="M29.2021 20.0729L29.1963 20.0805L29.2062 20.0676L29.2021 20.0729Z" fill="black"/>
<path d="M28.793 21.1737C28.8175 21.2753 28.8108 21.3908 28.8554 21.4868L28.9073 21.6383C28.9291 21.686 28.9597 21.7288 28.9848 21.7754C29.0433 21.8775 29.1098 21.9747 29.184 22.0662C29.4751 22.4603 29.7551 22.8299 30.0167 23.1674C30.1455 23.3339 30.2749 23.5059 30.3898 23.6452L30.5901 23.8473L30.802 23.9877C31.0645 24.1264 31.3694 24.1631 31.6576 24.0909C31.7657 24.0671 31.8689 24.025 31.9627 23.9666C32.0365 23.9309 32.1042 23.8841 32.1635 23.8278L32.3141 23.6924L32.8273 23.1046C32.9879 22.9148 33.1848 22.6856 33.4006 22.4142L33.7437 21.9891C33.7961 21.9075 33.8552 21.8259 33.906 21.7382C33.9383 21.65 33.9707 21.56 34.0041 21.4679C34.0579 21.2657 34.07 21.0546 34.0395 20.8476C34.009 20.6406 33.9366 20.4419 33.8268 20.2635C33.7816 20.1664 33.6957 20.097 33.6299 20.0154C33.5552 19.935 33.4503 19.8434 33.3605 19.7562L32.7882 19.214L32.2031 18.6479L32.0564 18.5019L32.0235 18.4686L32.0135 18.4603L31.9332 18.3937C31.8862 18.3494 31.835 18.3098 31.7803 18.2755C31.7457 18.2656 31.7122 18.252 31.6805 18.2349C31.5144 18.177 31.3357 18.1641 31.1629 18.1978C30.9894 18.2542 30.8328 18.3528 30.7072 18.4847C30.3257 18.9065 29.9448 19.3283 29.5482 19.7246L29.2548 20.0232L29.1823 20.0976C29.1907 20.0865 29.1667 20.1159 29.1895 20.0876L29.175 20.1053L29.1427 20.1459L29.0122 20.3057C28.9408 20.4361 28.8225 20.6387 28.808 20.8546C28.7813 20.9606 28.803 21.065 28.793 21.1737Z" fill="black"/>
<path d="M29.196 20.0798L29.1914 20.0856V20.0827L29.196 20.0798Z" fill="black"/>
<path d="M30.7169 11.9068C30.6947 11.8961 30.6713 11.8881 30.6472 11.8829C30.5386 11.8677 30.4279 11.8845 30.3287 11.9312C30.0052 12.055 29.6907 12.2231 29.4882 12.5073C29.3683 12.6738 29.2785 12.8403 29.1284 12.9885C29.1335 12.9824 29.1457 12.9602 29.1513 12.9602C29.0816 13.0322 29.0182 13.11 28.9617 13.1927C28.8903 13.3243 28.772 13.5257 28.757 13.7439C28.7302 13.8499 28.7497 13.957 28.7402 14.0663C28.7648 14.1685 28.7581 14.2844 28.8033 14.3805L28.8551 14.5325C28.8769 14.5808 28.9076 14.6236 28.9327 14.6707C28.9916 14.7728 29.0585 14.8701 29.1329 14.9616C29.4252 15.3573 29.7057 15.728 29.9695 16.066C30.0984 16.2325 30.2283 16.4057 30.3438 16.5456L30.5446 16.7482L30.7571 16.8891C31.229 17.1472 31.7761 16.9879 32.0132 16.4812C32.0935 16.3086 32.079 16.1088 32.0623 15.919C31.9987 15.1891 31.8291 14.5225 31.6847 13.8099C31.5547 13.1705 31.3729 12.6122 30.9406 12.0966C30.8805 12.0181 30.8043 11.9534 30.7169 11.9068Z" fill="black"/>
<path d="M29.2908 6.50244L29.2812 6.51436L29.2863 6.50809L29.2908 6.50244Z" fill="black"/>
<path d="M33.4144 6.42918C33.311 6.08916 33.142 5.77245 32.9168 5.49675C32.8046 5.37009 32.7001 5.23684 32.6039 5.09769C32.3212 4.64036 31.7969 4.50383 31.2653 4.61705C31.0899 4.67366 30.9317 4.77329 30.8051 4.90677C30.4214 5.3308 30.0382 5.75594 29.6389 6.155L29.3438 6.45526L29.2707 6.53019C29.2797 6.51853 29.2512 6.5535 29.2797 6.51798L29.2635 6.53796L29.2311 6.57847L29.0995 6.73943C29.0275 6.87208 28.9087 7.07632 28.8937 7.29445C28.8669 7.40101 28.8864 7.50868 28.877 7.61857C28.9015 7.7207 28.8948 7.83725 28.94 7.93382L28.9924 8.08645C29.0142 8.13474 29.0482 8.17803 29.0705 8.22465C29.1294 8.3274 29.1965 8.42522 29.2713 8.51714C29.5647 8.91398 29.8464 9.28528 30.1079 9.62717C30.2373 9.79368 30.3673 9.9674 30.4833 10.1078L30.6847 10.311L30.8983 10.4525C30.9345 10.4698 30.9717 10.4848 31.0098 10.4974C31.6317 10.7544 31.8649 10.4297 32.2665 10.0401C32.9531 9.37409 33.3882 8.69641 33.411 7.7218C33.4188 7.38325 33.5092 7.00639 33.4668 6.67671C33.4556 6.593 33.4381 6.51025 33.4144 6.42918Z" fill="black"/>
<path d="M30.6734 3.57253C30.7807 3.63529 30.8997 3.67587 31.0231 3.69186C31.1967 3.72296 31.3748 3.719 31.5469 3.68021L31.5814 3.66911C31.6802 3.64562 31.7744 3.60624 31.8603 3.55255C31.9357 3.51617 32.0049 3.46843 32.0656 3.41102L32.2206 3.27116C32.4499 3.0647 32.7829 2.7278 32.8671 2.43309C33.0963 1.62942 32.3718 1.9974 31.9992 2.26658C31.7203 2.4675 31.4074 2.61458 31.1146 2.79496C30.7336 3.02751 30.3744 3.37106 30.6734 3.57253Z" fill="black"/>
<path d="M40.4135 88.2284L38.3681 82.4979C38.1785 81.8669 38.1172 81.7348 38.6889 81.6377L39.3303 81.5627C39.8323 81.485 39.7927 81.6859 39.8624 81.9701L41.2825 87.9021C41.3037 88.037 41.1062 88.0941 40.892 88.1729C40.6873 88.2484 40.4681 88.3522 40.4135 88.2284Z" fill="black"/>
</svg>
